<svg xmlns="http://www.w3.org/2000/svg" xmlns:xlink="http://www.w3.org/1999/xlink" viewBox="0 0 64 90"><defs><linearGradient id="a" x1="17.06" y1="22.86" x2="46.94" y2="52.74" gradientUnits="userSpaceOnUse"><stop offset="0" stop-color="#cd188d"/><stop offset="1" stop-color="#6d357c"/></linearGradient></defs><title>logo_map</title><path d="M54.06,10.27a31.34,31.34,0,0,0-44.1,0C-1,21.19-2.22,41.78,7.06,54.13L32.05,90,57,54.13C66.26,41.78,65,21.19,54.06,10.27Z" fill="#fff" stroke="#9d2f8e" stroke-miterlimit="10"/><path d="M53.3,29.22,33,9.71a1.37,1.37,0,0,0-1.9,0L10.68,29.24a2.29,2.29,0,0,0,1.61,3.92H15.5v16.5a3.67,3.67,0,0,0,3.67,3.67H44.83a3.67,3.67,0,0,0,3.67-3.67V33.16h3.21A2.3,2.3,0,0,0,54,30.87,2.34,2.34,0,0,0,53.3,29.22Z" fill="url(#a)"/><path d="M30.2,38.77a4.67,4.67,0,0,1-1.84.74,11.63,11.63,0,0,1-2.29.23,8.41,8.41,0,0,1-2.71-.44,5.73,5.73,0,0,1-2.24-1.43,6.83,6.83,0,0,1-1.55-2.55A11,11,0,0,1,19,31.51a10.32,10.32,0,0,1,.65-3.9,6.94,6.94,0,0,1,1.67-2.53A6.17,6.17,0,0,1,23.6,23.7a8,8,0,0,1,2.53-.41,12.47,12.47,0,0,1,2.3.18A7.89,7.89,0,0,1,30,23.9l-.61,2.62a4.06,4.06,0,0,0-1.23-.36A10.56,10.56,0,0,0,26.4,26a3.76,3.76,0,0,0-3,1.34,6.28,6.28,0,0,0-1.14,4.14,8.57,8.57,0,0,0,.27,2.23,4.66,4.66,0,0,0,.82,1.72,3.73,3.73,0,0,0,1.38,1.11,4.29,4.29,0,0,0,1.91.4,6.5,6.5,0,0,0,1.72-.2,5.46,5.46,0,0,0,1.22-.52Z" fill="#fff"/><path d="M36.32,41h-.81v6.76h-3.1V31.9h3.1v7l.72-.31,4.36-6.69h3.53l-4.61,6.64-1.22.86,1.26.88,5.27,7.44H41Z" fill="#fff"/></svg>