<svg xmlns="http://www.w3.org/2000/svg" viewBox="0 0 623 100"><path d="M38.3,92.44h-9V9.83H-.1V6.9H67.85V9.83H38.3Z"/><path d="M105.4,7.29c21.2,0,41.06,16.72,41.06,43.36S126.6,94,105.4,94,64.34,77.3,64.34,50.65,84.21,7.29,105.4,7.29Zm0,86c20,0,31.86-16.84,31.86-42.64S125.39,8,105.4,8,73.55,24.85,73.55,50.65,85.3,93.29,105.4,93.29Z"/><path d="M181.35,92.44h-9V9.83H143V6.9h68V9.83H181.35Z"/><polygon points="204.49 92.44 203.28 92.44 236.34 7.78 236.83 7.78 269.16 92.44 259.72 92.44 232.71 20.86 232.47 20.86 216.84 60.95 204.49 92.44"/><path d="M290.36,89.5h42.15v2.94H281.4V8.87h9Z"/><path d="M375.1,89.48h42.15v2.94H366.14V8.85h9Z"/><path d="M486.17,84.14c-5.56,5.87-13.09,9.14-22.28,9.14-21,0-33.22-16.85-33.22-42.65S442.92,8,463.89,8s33.22,16.83,33.22,42.62a58.3,58.3,0,0,1-10.18,32.16l3,3c8.89-7.53,16.79-20.91,16.79-35.16C506.71,24,486,7.28,463.89,7.28S421.07,24,421.07,50.63,441.8,94,463.89,94a43.4,43.4,0,0,0,24.32-7.42Z"/><path d="M483.84,14.71A32.46,32.46,0,0,1,495.4,9.33c20.18-5.14,36.34,8.1,42.72,33.1S536.64,86.79,516.47,92c-20.32,5.18-36.36-8.12-42.73-33.11C469.19,41,471.81,26,481.11,17l-1.36-1c-12.79,9.6-20.16,26.19-15.31,45.2C471,87,495.22,98.12,516.64,92.65S554,65.89,547.42,40.07,516.64,3.16,495.22,8.62A43.19,43.19,0,0,0,483,13.81Z"/><path d="M618.28,8.85,577.34,47.73v.12a17.69,17.69,0,0,1,8.84-2.3c16.84,0,23.5,10.9,27.37,24.83,1.34,4.36,5.45,18.05,9.45,22H612.83c-3.15-3.75-6.3-13.08-8.24-20.71-4.24-15.62-8.11-25.07-19.86-25.07-4,0-10.78,4.12-11.27,4.6V92.42h-9V8.85h9V49.91h-1.85L614.73,8.85Z"/></svg>